<svg width="50" height="18" viewBox="0 0 50 18" fill="none" xmlns="http://www.w3.org/2000/svg">
<path d="M18.9833 1.21255L12.4375 16.8292H8.16667L4.94583 4.36463C4.75 3.59797 4.58125 3.31672 3.98542 2.9938C3.01458 2.46672 1.41042 1.97297 0 1.66463L0.0958333 1.21255H6.97083C7.4201 1.2121 7.85473 1.37227 8.19627 1.66414C8.53781 1.95602 8.76376 2.36037 8.83333 2.80422L10.5354 11.8417L14.7396 1.21255H18.9833ZM35.7187 11.7313C35.7354 7.60838 30.0187 7.3813 30.0583 5.53963C30.0708 4.97922 30.6042 4.38338 31.7708 4.2313C33.1381 4.10145 34.5151 4.3433 35.7562 4.9313L36.4646 1.6188C35.2562 1.16452 33.9764 0.929583 32.6854 0.925049C28.6917 0.925049 25.8812 3.05005 25.8562 6.08963C25.8312 8.33755 27.8625 9.58963 29.3937 10.3396C30.9687 11.1042 31.4979 11.5959 31.4896 12.2792C31.4792 13.3292 30.2354 13.7896 29.0729 13.8084C27.0417 13.8396 25.8646 13.2605 24.9229 12.823L24.1917 16.2438C25.1354 16.6771 26.8771 17.0563 28.6833 17.073C32.9271 17.073 35.7042 14.9771 35.7187 11.7313ZM46.2625 16.8292H50L46.7396 1.21255H43.2896C42.921 1.20913 42.5598 1.31655 42.253 1.52086C41.9461 1.72517 41.7078 2.01696 41.5687 2.35838L35.5083 16.8292H39.75L40.5937 14.4959H45.7771L46.2625 16.8292ZM41.7562 11.2959L43.8812 5.4313L45.1062 11.2959H41.7562ZM24.7562 1.21255L21.4167 16.8292H17.375L20.7187 1.21255H24.7562Z" fill="white"/>
</svg>
