<svg width="40" height="27" viewBox="0 0 40 27" fill="none" xmlns="http://www.w3.org/2000/svg">
<path d="M2.06597 9.61806H3.61111L2.82986 7.74305L2.06597 9.61806ZM12.8472 18.75L14.1319 17.3785L12.9167 16.0069H10.0868V16.8576H12.5521V17.8125H10.0868V18.75H12.8472ZM15.5903 17.3958L17.309 19.3056V15.5382L15.5903 17.3958ZM20.5903 16.5799C20.5903 16.1979 20.3588 16.0069 19.8958 16.0069H18.4375V17.2049H19.8785C20.353 17.2049 20.5903 16.9965 20.5903 16.5799ZM25.6076 16.5104C25.6076 16.1748 25.3646 16.0069 24.8785 16.0069H23.4549V17.066H24.8611C25.3588 17.066 25.6076 16.8808 25.6076 16.5104ZM20.7813 8.42014C20.7813 8.08449 20.5382 7.91667 20.0521 7.91667H18.6285V8.95833H20.0347C20.5324 8.95833 20.7813 8.77893 20.7813 8.42014ZM28.75 9.61806H30.2951L29.5313 7.74305L28.75 9.61806ZM12.1354 6.92708V11.6319H10.9896V7.95139L9.35764 11.6319H8.36806L6.73611 7.95139V11.6319H4.44444L4.01042 10.5903H1.66667L1.23264 11.6319H0.0173611L2.03125 6.92708H3.69792L5.60764 11.3889V6.92708H7.44792L8.92361 10.1215L10.2604 6.92708H12.1354ZM21.7882 16.5799C21.7882 16.8113 21.7564 17.0139 21.6927 17.1875C21.6291 17.3611 21.548 17.5058 21.4497 17.6215C21.3513 17.7373 21.2211 17.8328 21.059 17.908C20.897 17.9832 20.7465 18.0411 20.6076 18.0816C20.4688 18.1221 20.2865 18.1481 20.0608 18.1597C19.8351 18.1713 19.6528 18.1771 19.5139 18.1771C19.375 18.1771 19.1869 18.1742 18.9497 18.1684C18.7124 18.1626 18.5417 18.1597 18.4375 18.1597V19.7396H16.25L14.8611 18.1771L13.4201 19.7396H8.97569V15.0347H13.4896L14.8785 16.5799L16.3021 15.0347H19.8958C21.1574 15.0347 21.7882 15.5498 21.7882 16.5799ZM16.7361 10.6597V11.6319H12.9688V6.92708H16.7361V7.91667H14.0972V8.76736H16.6667V9.72222H14.0972V10.6597H16.7361ZM40 20.3646V24.3403C40 24.9769 39.7772 25.5237 39.3316 25.9809C38.886 26.4381 38.3449 26.6667 37.7083 26.6667H2.29167C1.65509 26.6667 1.114 26.4381 0.668403 25.9809C0.222801 25.5237 0 24.9769 0 24.3403V12.5694H1.92708L2.36111 11.5104H3.31597L3.75 12.5694H7.53472V11.7708L7.86458 12.5694H9.82639L10.1736 11.7535V12.5694H19.566V10.8507L19.7396 10.8333C19.8553 10.8333 19.9132 10.9144 19.9132 11.0764V12.5694H24.7569V12.1701C25.0231 12.309 25.3414 12.4132 25.7118 12.4826C26.0822 12.5521 26.386 12.5897 26.6233 12.5955C26.8605 12.6013 27.2251 12.5984 27.717 12.5868C28.2089 12.5752 28.5069 12.5694 28.6111 12.5694L29.0451 11.5104H30.0174L30.4514 12.5694H34.3924V11.5625L34.9826 12.5694H38.1424V6.00694H35.0174V6.77083L34.5833 6.00694H31.3715V6.77083L30.9722 6.00694H26.6493C25.8507 6.00694 25.2199 6.13426 24.7569 6.38889V6.00694H21.7708V6.38889C21.4931 6.13426 21.0706 6.00694 20.5035 6.00694H9.60069L8.85417 7.69097L8.10764 6.00694H4.67014V6.77083L4.28819 6.00694H1.35417L0 9.11458V2.32639C0 1.68981 0.222801 1.14294 0.668403 0.685764C1.114 0.228588 1.65509 0 2.29167 0H37.7083C38.3449 0 38.886 0.228588 39.3316 0.685764C39.7772 1.14294 40 1.68981 40 2.32639V14.0972H37.9167C37.3264 14.0972 36.8576 14.2245 36.5104 14.4792V14.0972H33.4375C32.8009 14.0972 32.3495 14.2245 32.0833 14.4792V14.0972H26.5972V14.4792C26.2384 14.2245 25.735 14.0972 25.0868 14.0972H21.4583V14.4792C21.1921 14.2245 20.6655 14.0972 19.8785 14.0972H15.816L14.8785 15.1042L14.0104 14.0972H7.95139V20.6597H13.9063L14.8611 19.6354L15.7639 20.6597H19.4271V19.1146H19.7917C20.4745 19.1146 20.9954 19.0394 21.3542 18.8889V20.6597H24.375V18.941H24.5139C24.6065 18.941 24.6644 18.9525 24.6875 18.9757C24.7106 18.9988 24.7222 19.0567 24.7222 19.1493V20.6597H33.9062C34.566 20.6597 35.0752 20.5208 35.434 20.2431V20.6597H38.3507C39.0451 20.6597 39.5949 20.5613 40 20.3646ZM26.8403 16.3021C26.8403 16.5683 26.7708 16.8171 26.6319 17.0486C26.4931 17.2801 26.2963 17.4479 26.0417 17.5521C26.331 17.6562 26.5278 17.8067 26.6319 18.0035C26.7361 18.2002 26.7882 18.4664 26.7882 18.8021V19.7396H25.6597V18.9583C25.6597 18.5764 25.5903 18.3247 25.4514 18.2031C25.3125 18.0816 25.0463 18.0208 24.6528 18.0208H23.4549V19.7396H22.3264V15.0347H25C25.5556 15.0347 26.0012 15.1215 26.3368 15.2951C26.6725 15.4687 26.8403 15.8044 26.8403 16.3021ZM22.0313 8.19444C22.0313 8.47222 21.9589 8.72685 21.8142 8.95833C21.6696 9.18981 21.4757 9.35764 21.2326 9.46181C21.5336 9.56597 21.7332 9.71354 21.8316 9.90451C21.93 10.0955 21.9792 10.3646 21.9792 10.7118V11.6319H20.8507C20.8507 11.5278 20.8536 11.3744 20.8594 11.1719C20.8652 10.9693 20.8652 10.8247 20.8594 10.7378C20.8536 10.651 20.8362 10.544 20.8073 10.4167C20.7784 10.2894 20.7292 10.1968 20.6597 10.1389C20.5903 10.081 20.489 10.0318 20.3559 9.99132C20.2228 9.95081 20.0521 9.93056 19.8438 9.93056H18.6285V11.6319H17.5174V6.92708L20.1736 6.94444C20.7407 6.94444 21.1921 7.02836 21.5278 7.19618C21.8634 7.364 22.0313 7.69676 22.0313 8.19444ZM31.2153 18.7674V19.7396H27.4653V15.0347H31.2153V16.0069H28.5938V16.8576H31.1632V17.8125H28.5938V18.75L31.2153 18.7674ZM23.8194 6.92708V11.6319H22.6736V6.92708H23.8194ZM35.8507 18.2465C35.8507 19.2419 35.2604 19.7396 34.0799 19.7396H31.8924V18.7326H34.0799C34.4734 18.7326 34.6701 18.588 34.6701 18.2986C34.6701 18.1134 34.5718 17.9919 34.375 17.934C34.1782 17.8762 33.9381 17.8472 33.6545 17.8472C33.3709 17.8472 33.0845 17.827 32.7951 17.7865C32.5058 17.7459 32.2627 17.6157 32.066 17.3958C31.8692 17.1759 31.7708 16.8576 31.7708 16.441C31.7708 15.9896 31.9213 15.6424 32.2222 15.3993C32.5232 15.1562 32.9051 15.0347 33.3681 15.0347H35.625V16.0243H33.559C33.1424 16.0243 32.934 16.169 32.934 16.4583C32.934 16.6435 33.0353 16.7622 33.2379 16.8142C33.4404 16.8663 33.6834 16.8895 33.967 16.8837C34.2506 16.8779 34.5341 16.8924 34.8177 16.9271C35.1013 16.9618 35.3443 17.0862 35.5469 17.3003C35.7494 17.5145 35.8507 17.8299 35.8507 18.2465ZM40 17.3785V19.1319C39.7222 19.537 39.213 19.7396 38.4722 19.7396H36.3021V18.7326H38.4722C38.8542 18.7326 39.0451 18.588 39.0451 18.2986C39.0451 18.1481 38.9728 18.0382 38.8281 17.9687C38.6835 17.8993 38.5041 17.8675 38.2899 17.8733C38.0758 17.879 37.8443 17.8675 37.5955 17.8385C37.3466 17.8096 37.1152 17.7633 36.901 17.6997C36.6869 17.636 36.5075 17.4971 36.3629 17.283C36.2182 17.0689 36.1458 16.7882 36.1458 16.441C36.1458 15.9896 36.2992 15.6424 36.6059 15.3993C36.9126 15.1562 37.2975 15.0347 37.7604 15.0347H40V16.0243H37.9514C37.5347 16.0243 37.3264 16.169 37.3264 16.4583C37.3264 16.6898 37.4942 16.8171 37.8299 16.8403C38.1655 16.8634 38.5619 16.8924 39.0191 16.9271C39.4763 16.9618 39.8032 17.1123 40 17.3785ZM37.1354 6.94444V11.6319H35.5382L33.4201 8.10764V11.6319H31.1285L30.6771 10.5903H28.3507L27.9167 11.6319H26.6146C25.1215 11.6319 24.375 10.8623 24.375 9.32292C24.375 7.72569 25.1447 6.92708 26.684 6.92708H27.7778V7.95139C27.6968 7.95139 27.5347 7.9456 27.2917 7.93403C27.0486 7.92245 26.8837 7.91956 26.7969 7.92535C26.7101 7.93113 26.577 7.94271 26.3976 7.96007C26.2182 7.97743 26.0938 8.01505 26.0243 8.07292C25.9549 8.13079 25.871 8.20891 25.7726 8.30729C25.6742 8.40567 25.6076 8.53877 25.5729 8.7066C25.5382 8.87442 25.5208 9.06829 25.5208 9.28819C25.5208 9.72801 25.599 10.0637 25.7552 10.2951C25.9115 10.5266 26.1979 10.6424 26.6146 10.6424H27.1181L28.7153 6.94444H30.3993L32.2917 11.3889V6.94444H34.0104L35.9896 10.2083V6.94444H37.1354Z" fill="white"/>
</svg>
