<svg width="13" height="20" viewBox="0 0 13 20" fill="none" xmlns="http://www.w3.org/2000/svg">
  <path d="M6.49998 4C7.16302 4 7.7989 4.26339 8.26774 4.73223C8.73658 5.20108 8.99998 5.83696 8.99998 6.5C8.99998 7.16304 8.73658 7.79893 8.26774 8.26777C7.7989 8.73661 7.16302 9 6.49998 9C5.83694 9 5.20105 8.73661 4.73221 8.26777C4.26337 7.79893 3.99998 7.16304 3.99998 6.5C3.99998 5.83696 4.26337 5.20108 4.73221 4.73223C5.20105 4.26339 5.83694 4 6.49998 4ZM6.49998 5C6.10215 5 5.72062 5.15804 5.43932 5.43934C5.15801 5.72065 4.99998 6.10218 4.99998 6.5C4.99998 6.89783 5.15801 7.27936 5.43932 7.56066C5.72062 7.84197 6.10215 8 6.49998 8C6.8978 8 7.27933 7.84197 7.56064 7.56066C7.84194 7.27936 7.99998 6.89783 7.99998 6.5C7.99998 6.10218 7.84194 5.72065 7.56064 5.43934C7.27933 5.15804 6.8978 5 6.49998 5ZM1.79998 9.357L6.49998 17.087L11.2 9.357C11.7069 8.523 11.9827 7.56915 11.9992 6.59333C12.0157 5.61751 11.7722 4.65489 11.2938 3.80424C10.8154 2.9536 10.1192 2.24558 9.27675 1.75285C8.43431 1.26012 7.47593 1.00043 6.49998 1.00043C5.52402 1.00043 4.56564 1.26012 3.7232 1.75285C2.88076 2.24558 2.1846 2.9536 1.70617 3.80424C1.22774 4.65489 0.984277 5.61751 1.00076 6.59333C1.01725 7.56915 1.29309 8.523 1.79998 9.357ZM12.054 9.877L6.49998 19.012L0.945977 9.877C0.347098 8.89135 0.0212575 7.7641 0.00189306 6.61094C-0.0174714 5.45777 0.270337 4.32022 0.835784 3.31502C1.40123 2.30981 2.22395 1.47316 3.21952 0.890914C4.21509 0.308669 5.34765 0.00180054 6.50098 0.00180054C7.6543 0.00180054 8.78687 0.308669 9.78243 0.890914C10.778 1.47316 11.6007 2.30981 12.1662 3.31502C12.7316 4.32022 13.0194 5.45777 13.0001 6.61094C12.9807 7.7641 12.6549 8.89135 12.056 9.877H12.054Z" fill="#034AA6"/>
</svg>
