<svg width="32" height="32" viewBox="0 0 32 32" fill="none" xmlns="http://www.w3.org/2000/svg">
<path d="M19.8974 11.3679H12.1027C10.5734 11.3679 9.33337 12.5946 9.33337 14.1066V17.9599C9.33337 19.4733 10.5734 20.6986 12.1027 20.6986H19.8974C21.4267 20.6986 22.6667 19.4719 22.6667 17.9599V14.1066C22.6667 12.5933 21.4267 11.3679 19.8974 11.3679ZM18.0254 16.2213L14.3787 17.9413C14.3564 17.9518 14.3318 17.9565 14.3072 17.955C14.2825 17.9536 14.2587 17.9459 14.2378 17.9327C14.2169 17.9195 14.1997 17.9013 14.1878 17.8798C14.1758 17.8582 14.1695 17.8339 14.1694 17.8093V14.2626C14.1696 14.2376 14.1762 14.2131 14.1886 14.1914C14.2009 14.1696 14.2186 14.1514 14.24 14.1385C14.2614 14.1255 14.2857 14.1182 14.3107 14.1173C14.3357 14.1164 14.3604 14.1219 14.3827 14.1333L18.028 15.9599C18.052 15.9724 18.072 15.9914 18.0859 16.0146C18.0998 16.0378 18.107 16.0644 18.1068 16.0914C18.1065 16.1184 18.0987 16.1449 18.0844 16.1678C18.07 16.1907 18.0496 16.2092 18.0254 16.2213Z" fill="white"/>
<path d="M7.99996 5.33341C7.29272 5.33341 6.61444 5.61437 6.11434 6.11446C5.61424 6.61456 5.33329 7.29284 5.33329 8.00008V24.0001C5.33329 24.7073 5.61424 25.3856 6.11434 25.8857C6.61444 26.3858 7.29272 26.6667 7.99996 26.6667H24C24.7072 26.6667 25.3855 26.3858 25.8856 25.8857C26.3857 25.3856 26.6666 24.7073 26.6666 24.0001V8.00008C26.6666 7.29284 26.3857 6.61456 25.8856 6.11446C25.3855 5.61437 24.7072 5.33341 24 5.33341H7.99996ZM7.99996 2.66675H24C25.4144 2.66675 26.771 3.22865 27.7712 4.22885C28.7714 5.22904 29.3333 6.58559 29.3333 8.00008V24.0001C29.3333 25.4146 28.7714 26.7711 27.7712 27.7713C26.771 28.7715 25.4144 29.3334 24 29.3334H7.99996C6.58547 29.3334 5.22892 28.7715 4.22872 27.7713C3.22853 26.7711 2.66663 25.4146 2.66663 24.0001V8.00008C2.66663 6.58559 3.22853 5.22904 4.22872 4.22885C5.22892 3.22865 6.58547 2.66675 7.99996 2.66675Z" fill="white"/>
</svg>
