<svg width="38" height="50" viewBox="0 0 38 50" fill="none" xmlns="http://www.w3.org/2000/svg">
<path d="M30 15C31.9891 15 33.8968 15.7902 35.3033 17.1967C36.7098 18.6032 37.5 20.5109 37.5 22.5V42.5C37.5 44.4891 36.7098 46.3968 35.3033 47.8033C33.8968 49.2098 31.9891 50 30 50H7.5C5.51088 50 3.60322 49.2098 2.1967 47.8033C0.790177 46.3968 0 44.4891 0 42.5V22.5C0 20.5109 0.790177 18.6032 2.1967 17.1967C3.60322 15.7902 5.51088 15 7.5 15V11.25C7.5 8.26631 8.68527 5.40483 10.795 3.29505C12.9048 1.18526 15.7663 0 18.75 0C21.7337 0 24.5952 1.18526 26.705 3.29505C28.8147 5.40483 30 8.26631 30 11.25V15ZM7.5 17.5C6.17392 17.5 4.90215 18.0268 3.96447 18.9645C3.02678 19.9021 2.5 21.1739 2.5 22.5V42.5C2.5 43.8261 3.02678 45.0979 3.96447 46.0355C4.90215 46.9732 6.17392 47.5 7.5 47.5H30C31.3261 47.5 32.5979 46.9732 33.5355 46.0355C34.4732 45.0979 35 43.8261 35 42.5V22.5C35 21.1739 34.4732 19.9021 33.5355 18.9645C32.5979 18.0268 31.3261 17.5 30 17.5H7.5ZM27.5 15V11.25C27.5 8.92936 26.5781 6.70376 24.9372 5.06282C23.2962 3.42187 21.0706 2.5 18.75 2.5C16.4294 2.5 14.2038 3.42187 12.5628 5.06282C10.9219 6.70376 10 8.92936 10 11.25V15H27.5ZM18.75 30C17.7554 30 16.8016 30.3951 16.0983 31.0983C15.3951 31.8016 15 32.7554 15 33.75C15 34.7446 15.3951 35.6984 16.0983 36.4016C16.8016 37.1049 17.7554 37.5 18.75 37.5C19.7446 37.5 20.6984 37.1049 21.4017 36.4016C22.1049 35.6984 22.5 34.7446 22.5 33.75C22.5 32.7554 22.1049 31.8016 21.4017 31.0983C20.6984 30.3951 19.7446 30 18.75 30ZM18.75 27.5C20.4076 27.5 21.9973 28.1585 23.1694 29.3306C24.3415 30.5027 25 32.0924 25 33.75C25 35.4076 24.3415 36.9973 23.1694 38.1694C21.9973 39.3415 20.4076 40 18.75 40C17.0924 40 15.5027 39.3415 14.3306 38.1694C13.1585 36.9973 12.5 35.4076 12.5 33.75C12.5 32.0924 13.1585 30.5027 14.3306 29.3306C15.5027 28.1585 17.0924 27.5 18.75 27.5Z" fill="#034AA6"/>
</svg>
