<svg width="32" height="32" viewBox="0 0 32 32" fill="none" xmlns="http://www.w3.org/2000/svg">
<path d="M16 12.0001C14.9391 12.0001 13.9217 12.4215 13.1715 13.1717C12.4214 13.9218 12 14.9392 12 16.0001C12 17.0609 12.4214 18.0784 13.1715 18.8285C13.9217 19.5787 14.9391 20.0001 16 20.0001C17.0608 20.0001 18.0782 19.5787 18.8284 18.8285C19.5785 18.0784 20 17.0609 20 16.0001C20 14.9392 19.5785 13.9218 18.8284 13.1717C18.0782 12.4215 17.0608 12.0001 16 12.0001ZM16 9.33342C17.7681 9.33342 19.4638 10.0358 20.714 11.286C21.9642 12.5363 22.6666 14.232 22.6666 16.0001C22.6666 17.7682 21.9642 19.4639 20.714 20.7141C19.4638 21.9644 17.7681 22.6667 16 22.6667C14.2318 22.6667 12.5362 21.9644 11.2859 20.7141C10.0357 19.4639 9.33329 17.7682 9.33329 16.0001C9.33329 14.232 10.0357 12.5363 11.2859 11.286C12.5362 10.0358 14.2318 9.33342 16 9.33342ZM24.6666 9.00008C24.6666 9.44211 24.491 9.86603 24.1785 10.1786C23.8659 10.4912 23.442 10.6667 23 10.6667C22.5579 10.6667 22.134 10.4912 21.8214 10.1786C21.5089 9.86603 21.3333 9.44211 21.3333 9.00008C21.3333 8.55805 21.5089 8.13413 21.8214 7.82157C22.134 7.50901 22.5579 7.33342 23 7.33342C23.442 7.33342 23.8659 7.50901 24.1785 7.82157C24.491 8.13413 24.6666 8.55805 24.6666 9.00008ZM16 5.33341C12.7013 5.33341 12.1626 5.34275 10.628 5.41075C9.58263 5.46008 8.88129 5.60008 8.23063 5.85341C7.68611 6.05333 7.19384 6.37376 6.79063 6.79075C6.3733 7.19395 6.05243 7.68619 5.85196 8.23075C5.59863 8.88408 5.45863 9.58408 5.41063 10.6281C5.34129 12.1001 5.33329 12.6147 5.33329 16.0001C5.33329 19.2987 5.34263 19.8374 5.41063 21.3721C5.45996 22.4161 5.59996 23.1187 5.85196 23.7681C6.07863 24.3481 6.34529 24.7654 6.78796 25.2081C7.23729 25.6561 7.65463 25.9241 8.22796 26.1454C8.88663 26.4001 9.58796 26.5414 10.628 26.5894C12.1 26.6587 12.6146 26.6667 16 26.6667C19.2986 26.6667 19.8373 26.6574 21.372 26.5894C22.4146 26.5401 23.1173 26.4001 23.768 26.1481C24.3116 25.9472 24.8036 25.6274 25.208 25.2121C25.6573 24.7627 25.9253 24.3454 26.1466 23.7721C26.4 23.1147 26.5413 22.4121 26.5893 21.3721C26.6586 19.9001 26.6666 19.3854 26.6666 16.0001C26.6666 12.7014 26.6573 12.1627 26.5893 10.6281C26.54 9.58542 26.4 8.88141 26.1466 8.23075C25.9457 7.68675 25.6254 7.1947 25.2093 6.79075C24.8063 6.37321 24.314 6.0523 23.7693 5.85208C23.116 5.59875 22.4146 5.45875 21.372 5.41075C19.9 5.34141 19.3853 5.33341 16 5.33341ZM16 2.66675C19.6226 2.66675 20.0746 2.68008 21.496 2.74675C22.916 2.81341 23.8826 3.03608 24.7333 3.36675C25.6133 3.70541 26.3546 4.16408 27.096 4.90408C27.774 5.57061 28.2986 6.37687 28.6333 7.26675C28.9626 8.11608 29.1866 9.08408 29.2533 10.5041C29.316 11.9254 29.3333 12.3774 29.3333 16.0001C29.3333 19.6227 29.32 20.0747 29.2533 21.4961C29.1866 22.9161 28.9626 23.8827 28.6333 24.7334C28.2995 25.6238 27.7748 26.4302 27.096 27.0961C26.4292 27.7738 25.623 28.2984 24.7333 28.6334C23.884 28.9627 22.916 29.1868 21.496 29.2534C20.0746 29.3161 19.6226 29.3334 16 29.3334C12.3773 29.3334 11.9253 29.3201 10.504 29.2534C9.08396 29.1868 8.11729 28.9627 7.26663 28.6334C6.37639 28.2994 5.57 27.7747 4.90396 27.0961C4.22583 26.4297 3.7012 25.6234 3.36663 24.7334C3.03596 23.8841 2.81329 22.9161 2.74663 21.4961C2.68396 20.0747 2.66663 19.6227 2.66663 16.0001C2.66663 12.3774 2.67996 11.9254 2.74663 10.5041C2.81329 9.08275 3.03596 8.11741 3.36663 7.26675C3.70027 6.37632 4.22503 5.56984 4.90396 4.90408C5.57019 4.22572 6.37653 3.70105 7.26663 3.36675C8.11729 3.03608 9.08263 2.81341 10.504 2.74675C11.9253 2.68408 12.3773 2.66675 16 2.66675Z" fill="white"/>
</svg>
