<svg width="53" height="36" viewBox="0 0 53 36" fill="none" xmlns="http://www.w3.org/2000/svg">
<path d="M11.75 23C13.1908 22.9997 14.5875 23.4972 15.7036 24.4084C16.8198 25.3195 17.5868 26.5883 17.875 28H35.5V3H8C6.67392 3 5.40215 3.52678 4.46447 4.46447C3.52678 5.40215 3 6.67392 3 8V28H5.625C5.91316 26.5883 6.68023 25.3195 7.79637 24.4084C8.91252 23.4972 10.3092 22.9997 11.75 23ZM11.75 35.5C10.3092 35.5003 8.91252 35.0028 7.79637 34.0916C6.68023 33.1805 5.91316 31.9117 5.625 30.5H0.5V8C0.5 6.01088 1.29018 4.10322 2.6967 2.6967C4.10322 1.29018 6.01088 0.5 8 0.5H35.5C36.163 0.5 36.7989 0.763393 37.2678 1.23223C37.7366 1.70107 38 2.33696 38 3V8H45.5L53 17.9525V30.5H47.875C47.5881 31.9129 46.8216 33.1831 45.7053 34.0955C44.5891 35.0079 43.1917 35.5063 41.75 35.5063C40.3083 35.5063 38.9109 35.0079 37.7947 34.0955C36.6784 33.1831 35.9119 31.9129 35.625 30.5H17.875C17.5868 31.9117 16.8198 33.1805 15.7036 34.0916C14.5875 35.0028 13.1908 35.5003 11.75 35.5ZM11.75 25.5C10.7554 25.5 9.80161 25.8951 9.09835 26.5984C8.39509 27.3016 8 28.2554 8 29.25C8 30.2446 8.39509 31.1984 9.09835 31.9017C9.80161 32.6049 10.7554 33 11.75 33C12.7446 33 13.6984 32.6049 14.4017 31.9017C15.1049 31.1984 15.5 30.2446 15.5 29.25C15.5 28.2554 15.1049 27.3016 14.4017 26.5984C13.6984 25.8951 12.7446 25.5 11.75 25.5ZM41.75 23C43.1908 22.9997 44.5875 23.4972 45.7036 24.4084C46.8198 25.3195 47.5868 26.5883 47.875 28H50.5V18.79L49.905 18H38V24.25C39.081 23.437 40.3974 22.9982 41.75 23ZM41.75 25.5C40.7554 25.5 39.8016 25.8951 39.0984 26.5984C38.3951 27.3016 38 28.2554 38 29.25C38 30.2446 38.3951 31.1984 39.0984 31.9017C39.8016 32.6049 40.7554 33 41.75 33C42.7446 33 43.6984 32.6049 44.4016 31.9017C45.1049 31.1984 45.5 30.2446 45.5 29.25C45.5 28.2554 45.1049 27.3016 44.4016 26.5984C43.6984 25.8951 42.7446 25.5 41.75 25.5ZM38 10.5V15.5H48.0225L44.25 10.5H38Z" fill="#034AA6"/>
</svg>
