<svg width="32" height="32" viewBox="0 0 32 32" fill="none" xmlns="http://www.w3.org/2000/svg">
<path d="M22.6667 17.5066V22.4359H19.8094V17.8359C19.8094 16.6812 19.396 15.8932 18.3614 15.8932C17.572 15.8932 17.1014 16.4239 16.8947 16.9386C16.82 17.1226 16.8 17.3786 16.8 17.6346V22.4359H13.9414C13.9414 22.4359 13.98 14.6466 13.9414 13.8399H16.8V15.0572L16.7814 15.0852H16.8V15.0586C17.18 14.4719 17.8574 13.6372 19.376 13.6372C21.256 13.6372 22.6667 14.8666 22.6667 17.5066ZM10.9507 9.69458C9.97337 9.69458 9.33337 10.3372 9.33337 11.1799C9.33337 12.0066 9.95471 12.6666 10.9134 12.6666H10.932C11.9294 12.6666 12.5494 12.0052 12.5494 11.1799C12.5307 10.3372 11.9294 9.69458 10.9507 9.69458ZM9.50271 22.4359H12.3614V13.8399H9.50271V22.4359Z" fill="white"/>
<path d="M7.99996 5.33341C7.29272 5.33341 6.61444 5.61437 6.11434 6.11446C5.61424 6.61456 5.33329 7.29284 5.33329 8.00008V24.0001C5.33329 24.7073 5.61424 25.3856 6.11434 25.8857C6.61444 26.3858 7.29272 26.6667 7.99996 26.6667H24C24.7072 26.6667 25.3855 26.3858 25.8856 25.8857C26.3857 25.3856 26.6666 24.7073 26.6666 24.0001V8.00008C26.6666 7.29284 26.3857 6.61456 25.8856 6.11446C25.3855 5.61437 24.7072 5.33341 24 5.33341H7.99996ZM7.99996 2.66675H24C25.4144 2.66675 26.771 3.22865 27.7712 4.22885C28.7714 5.22904 29.3333 6.58559 29.3333 8.00008V24.0001C29.3333 25.4146 28.7714 26.7711 27.7712 27.7713C26.771 28.7715 25.4144 29.3334 24 29.3334H7.99996C6.58547 29.3334 5.22892 28.7715 4.22872 27.7713C3.22853 26.7711 2.66663 25.4146 2.66663 24.0001V8.00008C2.66663 6.58559 3.22853 5.22904 4.22872 4.22885C5.22892 3.22865 6.58547 2.66675 7.99996 2.66675Z" fill="white"/>
</svg>
