<svg width="32" height="32" viewBox="0 0 32 32" fill="none" xmlns="http://www.w3.org/2000/svg">
<path d="M14.26 11.9159V13.7519H12.916V15.9959H14.26V22.6666H17.0227V15.9959H18.876C18.876 15.9959 19.0507 14.9199 19.1347 13.7426H17.0333V12.2093C17.0333 11.9786 17.3347 11.6706 17.6333 11.6706H19.1373V9.33325H17.0907C14.192 9.33325 14.26 11.5799 14.26 11.9159Z" fill="white"/>
<path d="M7.99996 5.33341C7.29272 5.33341 6.61444 5.61437 6.11434 6.11446C5.61424 6.61456 5.33329 7.29284 5.33329 8.00008V24.0001C5.33329 24.7073 5.61424 25.3856 6.11434 25.8857C6.61444 26.3858 7.29272 26.6667 7.99996 26.6667H24C24.7072 26.6667 25.3855 26.3858 25.8856 25.8857C26.3857 25.3856 26.6666 24.7073 26.6666 24.0001V8.00008C26.6666 7.29284 26.3857 6.61456 25.8856 6.11446C25.3855 5.61437 24.7072 5.33341 24 5.33341H7.99996ZM7.99996 2.66675H24C25.4144 2.66675 26.771 3.22865 27.7712 4.22885C28.7714 5.22904 29.3333 6.58559 29.3333 8.00008V24.0001C29.3333 25.4146 28.7714 26.7711 27.7712 27.7713C26.771 28.7715 25.4144 29.3334 24 29.3334H7.99996C6.58547 29.3334 5.22892 28.7715 4.22872 27.7713C3.22853 26.7711 2.66663 25.4146 2.66663 24.0001V8.00008C2.66663 6.58559 3.22853 5.22904 4.22872 4.22885C5.22892 3.22865 6.58547 2.66675 7.99996 2.66675Z" fill="white"/>
</svg>
